<?xml version="1.0" encoding="UTF-8" standalone="no"?>
<!DOCTYPE svg PUBLIC "-//W3C//DTD SVG 1.1//EN" "http://www.w3.org/Graphics/SVG/1.1/DTD/svg11.dtd">
<svg width="100%" height="100%" viewBox="0 0 555 103" version="1.1" xmlns="http://www.w3.org/2000/svg" xmlns:xlink="http://www.w3.org/1999/xlink" xml:space="preserve" xmlns:serif="http://www.serif.com/" style="fill-rule:evenodd;clip-rule:evenodd;stroke-linejoin:round;stroke-miterlimit:1.41421;">
    <g transform="matrix(1,0,0,1,-339.651,-242.433)">
        <g transform="matrix(5.55556,0,0,5.55556,0,-20924.4)">
            <path d="M69.059,3825.31C70.825,3825.31 72.042,3824.86 72.71,3824.66C73.45,3824.45 73.569,3824.5 73.569,3825.05L73.569,3826.89C73.569,3827.41 73.473,3827.48 73.163,3827.62C72.686,3827.84 70.92,3828.44 68.415,3828.44C63.451,3828.44 61.137,3826.19 61.137,3822.06C61.137,3817.46 64.072,3815.26 68.176,3815.26C72.113,3815.26 73.378,3817.32 73.378,3818.82C73.378,3820.16 72.591,3821.16 71.135,3821.16C69.751,3821.16 68.796,3820.25 68.796,3818.89C68.796,3818.63 68.82,3818.37 68.892,3818.13C68.653,3818.13 68.415,3818.1 68.176,3818.1C65.909,3818.1 65.241,3819.75 65.241,3821.71C65.241,3824.28 66.363,3825.31 69.059,3825.31" style="fill:white;fill-rule:nonzero;"/>
        </g>
        <g transform="matrix(5.55556,0,0,5.55556,0,-20923.8)">
            <path d="M79.272,3821.8C79.272,3824.38 80.155,3825.81 81.849,3825.81C83.567,3825.81 84.45,3824.38 84.45,3821.8C84.45,3819.2 83.567,3817.77 81.849,3817.77C80.155,3817.77 79.272,3819.2 79.272,3821.8M81.849,3815.14C86.574,3815.14 88.507,3818.27 88.507,3821.78C88.507,3825.29 86.574,3828.44 81.849,3828.44C77.101,3828.44 75.215,3825.29 75.215,3821.78C75.215,3818.27 77.101,3815.14 81.849,3815.14" style="fill:white;fill-rule:nonzero;"/>
        </g>
        <g transform="matrix(5.55556,0,0,5.55556,0,-20924.4)">
            <path d="M98.099,3825.31C99.865,3825.31 101.082,3824.86 101.75,3824.66C102.49,3824.45 102.609,3824.5 102.609,3825.05L102.609,3826.89C102.609,3827.41 102.513,3827.48 102.203,3827.62C101.726,3827.84 99.96,3828.44 97.455,3828.44C92.491,3828.44 90.177,3826.19 90.177,3822.06C90.177,3817.46 93.112,3815.26 97.216,3815.26C101.153,3815.26 102.418,3817.32 102.418,3818.82C102.418,3820.16 101.631,3821.16 100.175,3821.16C98.791,3821.16 97.837,3820.25 97.837,3818.89C97.837,3818.63 97.86,3818.37 97.932,3818.13C97.693,3818.13 97.455,3818.1 97.216,3818.1C94.949,3818.1 94.281,3819.75 94.281,3821.71C94.281,3824.28 95.403,3825.31 98.099,3825.31" style="fill:white;fill-rule:nonzero;"/>
        </g>
        <g transform="matrix(5.55556,0,0,5.55556,0,-20924.4)">
            <path d="M112.177,3825.31C113.944,3825.31 115.161,3824.86 115.828,3824.66C116.569,3824.45 116.688,3824.5 116.688,3825.05L116.688,3826.89C116.688,3827.41 116.593,3827.48 116.282,3827.62C115.805,3827.84 114.039,3828.44 111.534,3828.44C106.57,3828.44 104.256,3826.19 104.256,3822.06C104.256,3817.46 107.191,3815.26 111.295,3815.26C115.232,3815.26 116.497,3817.32 116.497,3818.82C116.497,3820.16 115.71,3821.16 114.254,3821.16C112.87,3821.16 111.916,3820.25 111.916,3818.89C111.916,3818.63 111.939,3818.37 112.011,3818.13C111.772,3818.13 111.534,3818.1 111.295,3818.1C109.028,3818.1 108.36,3819.75 108.36,3821.71C108.36,3824.28 109.482,3825.31 112.177,3825.31" style="fill:white;fill-rule:nonzero;"/>
        </g>
        <g transform="matrix(5.55556,0,0,5.55556,0,-20923.8)">
            <path d="M122.39,3821.8C122.39,3824.38 123.273,3825.81 124.967,3825.81C126.685,3825.81 127.568,3824.38 127.568,3821.8C127.568,3819.2 126.685,3817.77 124.967,3817.77C123.273,3817.77 122.39,3819.2 122.39,3821.8M124.967,3815.14C129.692,3815.14 131.625,3818.27 131.625,3821.78C131.625,3825.29 129.692,3828.44 124.967,3828.44C120.219,3828.44 118.333,3825.29 118.333,3821.78C118.333,3818.27 120.219,3815.14 124.967,3815.14" style="fill:white;fill-rule:nonzero;"/>
        </g>
        <g transform="matrix(5.55556,0,0,5.55556,0,-20952.8)">
            <path d="M142.077,3827.15L142.077,3824.02C141.695,3823.71 140.812,3823.4 139.929,3823.4C138.187,3823.4 137.352,3824.83 137.352,3827.41C137.352,3829.56 137.997,3830.73 139.404,3830.73C141.146,3830.73 141.91,3829.37 142.077,3827.15M146.587,3830.7C147.04,3830.7 147.088,3830.61 147.327,3830.61C147.47,3830.61 147.518,3830.68 147.518,3830.87L147.518,3832.59C147.518,3832.83 147.47,3833.11 147.183,3833.23C146.826,3833.4 146.301,3833.49 145.036,3833.49C143.986,3833.49 142.864,3833.16 142.363,3832.01C141.17,3833.33 139.715,3833.66 138.307,3833.66C135.563,3833.66 133.367,3832.33 133.367,3827.67C133.367,3822.66 135.73,3820.47 139.07,3820.47C140.311,3820.47 141.29,3820.78 142.053,3821.37L142.077,3821.37L142.077,3818.99C142.029,3818.34 141.815,3818.13 141.266,3818.08L140.908,3818.06C140.454,3818.03 140.359,3817.75 140.359,3817.43L140.359,3815.93C140.359,3815.48 140.478,3815.41 140.908,3815.38L145.322,3815.14C145.752,3815.14 145.895,3815.34 145.895,3815.81L145.895,3829.72C145.919,3830.39 146.157,3830.7 146.587,3830.7" style="fill:white;fill-rule:nonzero;"/>
        </g>
        <g transform="matrix(5.55556,0,0,5.55556,0,-20953.5)">
            <path d="M153.1,3826.05C153.888,3826.19 154.652,3826.29 155.248,3826.29C156.537,3826.29 157.468,3825.84 157.468,3824.62C157.468,3823.52 156.703,3823.12 155.343,3823.12C153.96,3823.12 153.267,3824.14 153.1,3826.05M156.847,3819.08C156.728,3819.37 156.489,3819.44 156.131,3819.37L150.976,3818.32C150.666,3818.25 150.714,3818.01 150.809,3817.8L151.764,3815.67C151.932,3815.29 152.123,3815.29 152.552,3815.48L157.038,3817.6C157.348,3817.75 157.301,3817.94 157.133,3818.32L156.847,3819.08ZM160.952,3824.74C160.952,3827.12 159.329,3828.8 155.583,3828.8C154.746,3828.8 153.936,3828.72 153.148,3828.58C153.434,3830.08 154.293,3830.78 156.394,3830.78C157.61,3830.78 158.9,3830.59 159.71,3830.25C160.093,3830.13 160.379,3829.97 160.64,3829.97C160.856,3829.97 160.928,3830.11 160.928,3830.35L160.928,3832.18C160.928,3832.45 160.809,3832.64 160.403,3832.85C159.377,3833.38 157.61,3833.64 156.059,3833.64C151.025,3833.64 148.997,3830.87 148.997,3827.12C148.997,3823.26 151.143,3820.49 155.343,3820.49C158.9,3820.49 160.952,3822.04 160.952,3824.74" style="fill:white;fill-rule:nonzero;"/>
        </g>
    </g>
</svg>
