<?xml version="1.0" encoding="UTF-8" standalone="no"?>
<!DOCTYPE svg PUBLIC "-//W3C//DTD SVG 1.1//EN" "http://www.w3.org/Graphics/SVG/1.1/DTD/svg11.dtd">
<svg width="100%" height="100%" viewBox="0 0 555 103" version="1.1" xmlns="http://www.w3.org/2000/svg" xmlns:xlink="http://www.w3.org/1999/xlink" xml:space="preserve" xmlns:serif="http://www.serif.com/" style="fill-rule:evenodd;clip-rule:evenodd;stroke-linejoin:round;stroke-miterlimit:1.41421;">
    <g transform="matrix(1,0,0,1,-339.651,-242.422)">
        <g transform="matrix(5.55556,0,0,5.55556,0,-10941.5)">
            <path d="M69.059,2028.38C70.825,2028.38 72.042,2027.93 72.71,2027.74C73.45,2027.53 73.569,2027.57 73.569,2028.12L73.569,2029.96C73.569,2030.48 73.473,2030.56 73.163,2030.7C72.686,2030.91 70.92,2031.51 68.415,2031.51C63.451,2031.51 61.137,2029.27 61.137,2025.14C61.137,2020.53 64.072,2018.34 68.176,2018.34C72.113,2018.34 73.378,2020.39 73.378,2021.89C73.378,2023.23 72.591,2024.23 71.135,2024.23C69.751,2024.23 68.796,2023.32 68.796,2021.96C68.796,2021.7 68.82,2021.44 68.892,2021.2C68.653,2021.2 68.415,2021.18 68.176,2021.18C65.909,2021.18 65.241,2022.82 65.241,2024.78C65.241,2027.36 66.363,2028.38 69.059,2028.38" style="fill:rgb(255,71,19);fill-rule:nonzero;"/>
        </g>
        <g transform="matrix(5.55556,0,0,5.55556,0,-10940.9)">
            <path d="M79.272,2024.88C79.272,2027.45 80.155,2028.88 81.849,2028.88C83.567,2028.88 84.45,2027.45 84.45,2024.88C84.45,2022.27 83.567,2020.84 81.849,2020.84C80.155,2020.84 79.272,2022.27 79.272,2024.88M81.849,2018.22C86.574,2018.22 88.507,2021.34 88.507,2024.85C88.507,2028.36 86.574,2031.51 81.849,2031.51C77.101,2031.51 75.215,2028.36 75.215,2024.85C75.215,2021.34 77.101,2018.22 81.849,2018.22" style="fill:rgb(255,71,19);fill-rule:nonzero;"/>
        </g>
        <g transform="matrix(5.55556,0,0,5.55556,0,-10941.5)">
            <path d="M98.099,2028.38C99.865,2028.38 101.082,2027.93 101.75,2027.74C102.49,2027.53 102.609,2027.57 102.609,2028.12L102.609,2029.96C102.609,2030.48 102.513,2030.56 102.203,2030.7C101.726,2030.91 99.96,2031.51 97.455,2031.51C92.491,2031.51 90.177,2029.27 90.177,2025.14C90.177,2020.53 93.112,2018.34 97.216,2018.34C101.153,2018.34 102.418,2020.39 102.418,2021.89C102.418,2023.23 101.631,2024.23 100.175,2024.23C98.791,2024.23 97.837,2023.32 97.837,2021.96C97.837,2021.7 97.86,2021.44 97.932,2021.2C97.693,2021.2 97.455,2021.18 97.216,2021.18C94.949,2021.18 94.281,2022.82 94.281,2024.78C94.281,2027.36 95.403,2028.38 98.099,2028.38" style="fill:rgb(255,71,19);fill-rule:nonzero;"/>
        </g>
        <g transform="matrix(5.55556,0,0,5.55556,0,-10941.5)">
            <path d="M112.177,2028.38C113.944,2028.38 115.161,2027.93 115.828,2027.74C116.569,2027.53 116.688,2027.57 116.688,2028.12L116.688,2029.96C116.688,2030.48 116.593,2030.56 116.282,2030.7C115.805,2030.91 114.039,2031.51 111.534,2031.51C106.57,2031.51 104.256,2029.27 104.256,2025.14C104.256,2020.53 107.191,2018.34 111.295,2018.34C115.232,2018.34 116.497,2020.39 116.497,2021.89C116.497,2023.23 115.71,2024.23 114.254,2024.23C112.87,2024.23 111.916,2023.32 111.916,2021.96C111.916,2021.7 111.939,2021.44 112.011,2021.2C111.772,2021.2 111.534,2021.18 111.295,2021.18C109.028,2021.18 108.36,2022.82 108.36,2024.78C108.36,2027.36 109.482,2028.38 112.177,2028.38" style="fill:rgb(255,71,19);fill-rule:nonzero;"/>
        </g>
        <g transform="matrix(5.55556,0,0,5.55556,0,-10940.9)">
            <path d="M122.39,2024.88C122.39,2027.45 123.273,2028.88 124.967,2028.88C126.685,2028.88 127.568,2027.45 127.568,2024.88C127.568,2022.27 126.685,2020.84 124.967,2020.84C123.273,2020.84 122.39,2022.27 122.39,2024.88M124.967,2018.22C129.692,2018.22 131.625,2021.34 131.625,2024.85C131.625,2028.36 129.692,2031.51 124.967,2031.51C120.219,2031.51 118.333,2028.36 118.333,2024.85C118.333,2021.34 120.219,2018.22 124.967,2018.22" style="fill:rgb(255,71,19);fill-rule:nonzero;"/>
        </g>
        <g transform="matrix(5.55556,0,0,5.55556,0,-10969.9)">
            <path d="M142.077,2030.22L142.077,2027.09C141.695,2026.78 140.812,2026.47 139.929,2026.47C138.187,2026.47 137.352,2027.91 137.352,2030.48C137.352,2032.63 137.997,2033.8 139.404,2033.8C141.146,2033.8 141.91,2032.44 142.077,2030.22M146.587,2033.78C147.04,2033.78 147.088,2033.68 147.327,2033.68C147.47,2033.68 147.518,2033.75 147.518,2033.94L147.518,2035.66C147.518,2035.9 147.47,2036.18 147.183,2036.31C146.826,2036.47 146.301,2036.57 145.036,2036.57C143.986,2036.57 142.864,2036.23 142.363,2035.09C141.17,2036.4 139.715,2036.73 138.307,2036.73C135.563,2036.73 133.367,2035.4 133.367,2030.74C133.367,2025.73 135.73,2023.54 139.07,2023.54C140.311,2023.54 141.29,2023.85 142.053,2024.44L142.077,2024.44L142.077,2022.06C142.029,2021.41 141.815,2021.2 141.266,2021.15L140.908,2021.13C140.454,2021.11 140.359,2020.82 140.359,2020.51L140.359,2019C140.359,2018.55 140.478,2018.48 140.908,2018.46L145.322,2018.22C145.752,2018.22 145.895,2018.41 145.895,2018.88L145.895,2032.8C145.919,2033.47 146.157,2033.78 146.587,2033.78" style="fill:rgb(255,71,19);fill-rule:nonzero;"/>
        </g>
        <g transform="matrix(5.55556,0,0,5.55556,0,-10970.6)">
            <path d="M153.1,2029.12C153.888,2029.27 154.652,2029.36 155.248,2029.36C156.537,2029.36 157.468,2028.91 157.468,2027.69C157.468,2026.59 156.703,2026.19 155.343,2026.19C153.96,2026.19 153.267,2027.21 153.1,2029.12M156.847,2022.15C156.728,2022.44 156.489,2022.51 156.131,2022.44L150.976,2021.39C150.666,2021.32 150.714,2021.08 150.809,2020.87L151.764,2018.74C151.932,2018.36 152.123,2018.36 152.552,2018.55L157.038,2020.68C157.348,2020.82 157.301,2021.01 157.133,2021.39L156.847,2022.15ZM160.952,2027.81C160.952,2030.2 159.329,2031.87 155.583,2031.87C154.746,2031.87 153.936,2031.8 153.148,2031.65C153.434,2033.15 154.293,2033.85 156.394,2033.85C157.61,2033.85 158.9,2033.66 159.71,2033.32C160.093,2033.2 160.379,2033.04 160.64,2033.04C160.856,2033.04 160.928,2033.18 160.928,2033.42L160.928,2035.26C160.928,2035.52 160.809,2035.71 160.403,2035.92C159.377,2036.45 157.61,2036.71 156.059,2036.71C151.025,2036.71 148.997,2033.94 148.997,2030.2C148.997,2026.33 151.143,2023.56 155.343,2023.56C158.9,2023.56 160.952,2025.11 160.952,2027.81" style="fill:rgb(255,71,19);fill-rule:nonzero;"/>
        </g>
    </g>
</svg>
